<svg width="19" height="12" viewBox="0 0 19 12" fill="none" xmlns="http://www.w3.org/2000/svg">
<g clip-path="url(#clip0_33_177)">
<path d="M5.93894 0.75C6.4385 0.75 6.8945 0.794488 7.30694 0.882536C7.71937 0.970585 8.07157 1.11517 8.36537 1.31629C8.65917 1.51741 8.88717 1.78434 9.04937 2.11799C9.21156 2.45165 9.29219 2.86316 9.29219 3.35345C9.29219 3.88267 9.17171 4.32383 8.93166 4.67695C8.69161 5.03007 8.33571 5.31924 7.86581 5.54446C8.51274 5.73075 8.99561 6.05699 9.31444 6.52226C9.63327 6.98753 9.79268 7.54918 9.79268 8.2063C9.79268 8.73552 9.6898 9.19429 9.48405 9.58171C9.27829 9.96912 9.00117 10.2852 8.65269 10.5298C8.3042 10.7755 7.90752 10.9562 7.46172 11.0739C7.01313 11.1916 6.55065 11.2509 6.08724 11.25H0.998047V0.75H5.93894ZM5.64514 4.99949C6.05665 4.99949 6.39494 4.90125 6.66001 4.70569C6.92509 4.5092 7.05762 4.1913 7.05669 3.75013C7.05669 3.50545 7.01221 3.30433 6.92416 3.14769C6.83611 2.99106 6.7184 2.86779 6.57104 2.77974C6.42367 2.6917 6.25499 2.63053 6.06407 2.59623C5.86758 2.56194 5.66831 2.54433 5.46812 2.54526H3.30769V5.00134L5.64514 4.99949ZM5.77768 9.45473C5.99548 9.45566 6.21236 9.43341 6.4246 9.38893C6.63036 9.34444 6.81201 9.27122 6.96865 9.16834C7.12528 9.06547 7.2504 8.92551 7.34401 8.74942C7.43669 8.57332 7.48396 8.34718 7.48396 8.07284C7.48396 7.53435 7.33196 7.14879 7.02796 6.91894C6.72396 6.68816 6.32172 6.57324 5.82217 6.57324H3.30769V9.45566L5.77768 9.45473ZM12.6973 9.23415C13.0106 9.53815 13.462 9.69014 14.0505 9.69014C14.4722 9.69014 14.8346 9.58449 15.1386 9.3741C15.4426 9.16371 15.6289 8.94034 15.6975 8.70493H17.5354C17.2416 9.61693 16.7902 10.2685 16.1822 10.6605C15.5742 11.0526 14.8392 11.2491 13.9764 11.2491C13.3786 11.2491 12.8391 11.1536 12.3591 10.9627C11.879 10.7717 11.4721 10.4993 11.1384 10.1461C10.8048 9.79302 10.5471 9.37224 10.3664 8.88195C10.1857 8.39166 10.0948 7.85225 10.0948 7.26465C10.0948 6.6965 10.1875 6.16729 10.3738 5.677C10.5601 5.18671 10.8252 4.76315 11.1681 4.40539C11.511 4.04764 11.9207 3.76589 12.3961 3.56013C12.8716 3.35438 13.399 3.2515 13.9773 3.2515C14.6242 3.2515 15.1877 3.37662 15.6687 3.62686C16.1488 3.8771 16.5437 4.21261 16.8523 4.63432C17.1609 5.05602 17.3843 5.53612 17.5215 6.07553C17.6586 6.61494 17.7078 7.17845 17.6688 7.76698H12.1839C12.2126 8.44079 12.3841 8.93108 12.6973 9.23415ZM15.058 5.2349C14.8077 4.96056 14.4277 4.82339 13.918 4.82339C13.5843 4.82339 13.3072 4.87993 13.0875 4.99207C12.867 5.10515 12.6909 5.24417 12.5583 5.411C12.4258 5.57783 12.3331 5.75392 12.2793 5.94021C12.2256 6.12651 12.1932 6.29333 12.1839 6.43977H15.5807C15.4815 5.91148 15.3073 5.50924 15.058 5.2349ZM11.8261 1.28292H16.0701V2.45999H11.8261V1.28292Z" fill="white"/>
</g>
<defs>
<clipPath id="clip0_33_177">
<rect width="17.48" height="12" fill="white" transform="translate(0.600098)"/>
</clipPath>
</defs>
</svg>
