<svg width="13" height="12" viewBox="0 0 13 12" fill="none" xmlns="http://www.w3.org/2000/svg">
<g clip-path="url(#clip0_33_154)">
<path d="M2.96919 11.3351C2.96919 11.7023 2.67152 11.9999 2.30432 11.9999H0.958823C0.591624 11.9999 0.293945 11.7023 0.293945 11.3351V4.68627C0.293945 4.31906 0.591624 4.02139 0.958823 4.02139H2.30432C2.67152 4.02139 2.96919 4.31906 2.96919 4.68627V11.3351ZM12.6001 11.3351C12.6001 11.7023 12.3024 11.9999 11.9352 11.9999H10.693C10.3258 11.9999 10.0281 11.7023 10.0281 11.3351V8.11704C10.0281 7.191 10.0105 6.00007 8.69103 6.00007C7.35176 6.00007 7.14578 7.00856 7.14578 8.05002V11.3351C7.14578 11.7023 6.84812 11.9999 6.48091 11.9999H5.23925C4.87204 11.9999 4.57434 11.7023 4.57434 11.3351V4.68042C4.57434 4.31321 4.87204 4.01554 5.23925 4.01554H6.4976C6.79885 4.01554 7.04306 4.25975 7.04306 4.561V5.08463C7.04306 5.09669 7.05284 5.10647 7.06487 5.10647C7.07291 5.10647 7.08016 5.10221 7.08402 5.09524C7.43135 4.47096 8.2683 3.81714 9.51288 3.81714C12.1185 3.81714 12.6001 5.47082 12.6001 7.62078V11.3351Z" fill="white"/>
<path d="M0.00146484 1.58662C0.00146484 2.46278 0.715484 3.17451 1.59875 3.17451C2.47882 3.17451 3.19475 2.46278 3.19475 1.58662C3.19475 0.711722 2.47882 0 1.59875 0C0.71676 0 0.00146484 0.710452 0.00146484 1.58662Z" fill="white"/>
</g>
<defs>
<clipPath id="clip0_33_154">
<rect width="12.6" height="12" fill="white"/>
</clipPath>
</defs>
</svg>
