<svg width="13" height="12" viewBox="0 0 13 12" fill="none" xmlns="http://www.w3.org/2000/svg">
<g clip-path="url(#clip0_33_168)">
<path d="M8.76848 0H3.39158C1.56562 0 0.0800781 1.48561 0.0800781 3.31157V8.68846C0.0800781 10.5145 1.56562 12 3.39158 12H8.76848C10.5946 12 12.0801 10.5144 12.0801 8.68846V3.31157C12.0802 1.48561 10.5946 0 8.76848 0ZM11.0155 8.68846C11.0155 9.92741 10.0075 10.9353 8.76854 10.9353H3.39158C2.1527 10.9354 1.14478 9.92741 1.14478 8.68846V3.31157C1.14478 2.07269 2.1527 1.0647 3.39158 1.0647H8.76848C10.0074 1.0647 11.0154 2.07269 11.0154 3.31157L11.0155 8.68846Z" fill="white"/>
<path d="M5.96803 3.13501C4.29482 3.13501 2.93359 4.49623 2.93359 6.16944C2.93359 7.84258 4.29482 9.20374 5.96803 9.20374C7.64125 9.20374 9.00247 7.84258 9.00247 6.16944C9.00247 4.49623 7.64125 3.13501 5.96803 3.13501ZM5.96803 8.15884C4.87102 8.15884 3.97844 7.2664 3.97844 6.16937C3.97844 5.07229 4.87095 4.17978 5.96803 4.17978C7.06513 4.17978 7.95763 5.07229 7.95763 6.16937C7.95763 7.2664 7.06507 8.15884 5.96803 8.15884Z" fill="white"/>
<path d="M9.12997 2.24902C8.92867 2.24902 8.73091 2.33052 8.58877 2.47332C8.44591 2.61541 8.36377 2.81323 8.36377 3.01524C8.36377 3.21661 8.44597 3.41437 8.58877 3.55717C8.73085 3.69927 8.92867 3.78146 9.12997 3.78146C9.33199 3.78146 9.52915 3.69927 9.67195 3.55717C9.81469 3.41437 9.89623 3.21655 9.89623 3.01524C9.89623 2.81323 9.81469 2.61541 9.67195 2.47332C9.52981 2.33052 9.33199 2.24902 9.12997 2.24902Z" fill="white"/>
</g>
<defs>
<clipPath id="clip0_33_168">
<rect width="12" height="12" fill="white" transform="translate(0.0800781)"/>
</clipPath>
</defs>
</svg>
